#!OML:ASF I:\Actors\actors\Patient Classification 2\Patient 1\Session 1\actor1.ASF
:FULLY-SPECIFIED
:DEGREES
332
root -0.292188 18.7812 5.39283 5.94427 14.6973 0.815106
lowerback 12.5168 5.84847 4.03085
upperback 0.556012 8.46584 2.00735
thorax -6.11362 4.05869 -1.59242
lowerneck -9.98335 -11.9947 -10.4597
upperneck 8.8248 -15.2745 5.7474
head 5.51154 -7.49065 2.10334
rclavicle 5.86415e-014 -1.27222e-014
rhumerus -11.8553 13.1809 -54.7333
rradius 89.1341
rwrist -48.2129
rhand -4.33031 -51.4807
rfingers 7.12502
rthumb 21.4367 -80.3147
lclavicle 5.86415e-014 -1.27222e-014
lhumerus -50.1614 -11.8953 94.4228
lradius 64.5671
lwrist 16.0307
lhand -7.24631 -22.9873
lfingers 7.12502
lthumb 18.6339 6.1402
rfemur 0 0 0
rtibia 0
rfoot 0 0
rtoes 0
lfemur -14.7498 -8.7933 -14.5959
ltibia 23.4563
lfoot -15.9582 2.86857
ltoes -55.7252
333
root -0.29302 18.7814 5.39022 5.99546 15.1463 0.766617
lowerback 12.6266 5.70564 4.14005
upperback 0.492292 8.30362 2.03496
thorax -6.23898 3.97134 -1.61349
lowerneck -9.69219 -11.9447 -10.5419
upperneck 8.74685 -15.232 5.83001
head 5.44952 -7.47429 2.16342
rclavicle 1.2106e-013 -1.27222e-014
rhumerus -13.0724 12.9177 -53.5452
rradius 94.3521
rwrist -49.8665
rhand -4.40414 -52.2449
rfingers 7.12502
rthumb 21.3658 -81.087
lclavicle 1.2106e-013 -1.27222e-014
lhumerus -50.5728 -11.8346 94.3127
lradius 64.9735
lwrist 15.9644
lhand -7.37227 -22.9388
lfingers 7.12502
lthumb 18.5128 6.20031
rfemur 0 0 0
rtibia 0
rfoot 0 0
rtoes 0
lfemur -14.9588 -9.00863 -14.4925
ltibia 23.5166
lfoot -15.8701 2.63618
ltoes -55.665
334
root -0.294875 18.7812 5.38736 6.03969 15.5691 0.77467
lowerback 12.7722 5.58883 4.19324
upperback 0.442743 8.1686 2.04975
thorax -6.37424 3.89837 -1.62455
lowerneck -9.30322 -11.8718 -10.5585
upperneck 8.58188 -15.1714 5.88851
head 5.3358 -7.45094 2.21751
rclavicle -7.09661e-014 -3.18055e-015
rhumerus -14.3503 12.6497 -52.2229
rradius 99.3265
rwrist -50.6646
rhand -3.94182 -52.2258
rfingers 7.12502
rthumb 21.8098 -81.0169
lclavicle -7.09661e-014 -3.18055e-015
lhumerus -51.0209 -11.8667 94.2189
lradius 65.4659
lwrist 15.8622
lhand -7.42793 -22.7646
lfingers 7.12502
lthumb 18.4592 6.37956
rfemur 0 0 0
rtibia 0
rfoot 0 0
rtoes 0
lfemur -15.1247 -9.35732 -14.4486
ltibia 23.5611
lfoot -15.7968 2.57402
ltoes -55.6369
335
root -0.298683 18.7811 5.38766 6.04693 15.9248 0.786187
lowerback 12.8999 5.51631 4.20455
upperback 0.460203 8.0824 2.07479
thorax -6.43313 3.85406 -1.60356
lowerneck -9.03956 -11.8522 -10.5096
upperneck 8.42844 -15.1694 5.8665
head 5.23919 -7.45588 2.22436
rclavicle 3.57812e-015 3.65764e-014
rhumerus -15.5816 12.4665 -50.7927
rradius 103.894
rwrist -51.1939
rhand -4.25103 -51.8096
rfingers 7.12502
rthumb 21.5129 -80.6349
lclavicle 3.57812e-015 3.65764e-014
lhumerus -51.3865 -11.8581 94.1167
lradius 66.0121
lwrist 15.8719
lhand -7.22104 -22.6616
lfingers 7.12502
lthumb 18.6582 6.46353
rfemur 0 0 0
rtibia 0
rfoot 0 0
rtoes 0
lfemur -15.211 -9.62682 -14.4176
ltibia 23.58
lfoot -15.7161 2.51037
ltoes -55.619
336
root -0.302387 18.78 5.39341 6.0049 16.6629 0.816181
lowerback 12.9685 5.33699 4.27088
upperback 0.523997 7.85835 2.11685
thorax -6.41115 3.74467 -1.56187
lowerneck -8.83774 -11.8985 -10.3241
upperneck 8.20019 -15.261 5.81593
head 5.12387 -7.50282 2.19261
rclavicle 4.79071e-014 -1.59028e-015
rhumerus -17.0878 11.9579 -49.6835
rradius 108.021
rwrist -51.6577
rhand -4.62247 -51.5922
rfingers 7.12502
rthumb 21.1561 -80.4579
lclavicle 4.79071e-014 -1.59028e-015
lhumerus -51.7343 -11.8635 94.041
lradius 66.6542
lwrist 15.9885
lhand -6.94188 -22.6775
lfingers 7.12502
lthumb 18.9267 6.42163
rfemur 0 0 0
rtibia 0
rfoot 0 0
rtoes 0
lfemur -15.2916 -9.83905 -14.3787
ltibia 23.582
lfoot -15.5407 2.04424
ltoes -55.6845
337
root -0.306249 18.7817 5.39183 6.10035 17.0052 0.851329
lowerback 12.9752 5.33148 4.25049
upperback 0.559302 7.8479 2.13414
thorax -6.38287 3.74181 -1.52971
lowerneck -8.58745 -11.9817 -10.45
upperneck 7.91908 -15.3801 5.90242
head 5.02144 -7.56573 2.24584
rclavicle -3.39922e-014 -1.11319e-014
rhumerus -17.5802 10.9271 -49.1748
rradius 110.943
rwrist -51.9926
rhand -4.2906 -52.3563
rfingers 7.12502
rthumb 21.4749 -81.186
lclavicle -3.39922e-014 -1.11319e-014
lhumerus -52.0662 -11.9119 94.0323
lradius 67.3526
lwrist 16.2012
lhand -6.84187 -22.6805
lfingers 7.12502
lthumb 19.0229 6.40922
rfemur 0 0 0
rtibia 0
rfoot 0 0
rtoes 0
lfemur -15.479 -9.90121 -14.3674
ltibia 23.5829
lfoot -15.4112 1.8172
ltoes -55.7743
338
root -0.310432 18.784 5.38754 6.23945 17.109 0.876159
lowerback 12.9389 5.40427 4.22278
upperback 0.612444 7.93499 2.13222
thorax -6.30533 3.7884 -1.52397
lowerneck -8.48434 -12.0726 -10.6032
upperneck 7.69453 -15.509 6.12287
head 4.97488 -7.62367 2.33096
rclavicle -3.33958e-014 9.54166e-015
rhumerus -18.3717 9.99373 -48.8711
rradius 113.399
rwrist -52.1824
rhand -3.84122 -52.2024
rfingers 7.12502
rthumb 21.9064 -80.9822
lclavicle -3.33958e-014 9.54166e-015
lhumerus -52.2999 -11.8101 94.011
lradius 68.018
lwrist 16.4251
lhand -6.83334 -22.7096
lfingers 7.12502
lthumb 19.0311 6.37939
rfemur 0 0 0
rtibia 0
rfoot 0 0
rtoes 0
lfemur -15.6794 -9.89678 -14.357
ltibia 23.5802
lfoot -15.2983 1.74916
ltoes -55.8059
339
root -0.315777 18.7858 5.38371 6.3266 17.1336 0.828879
lowerback 12.9426 5.45845 4.23925
upperback 0.670023 8.00649 2.13938
thorax -6.24145 3.82564 -1.53392
lowerneck -8.5254 -12.1492 -10.7362
upperneck 7.50409 -15.6102 6.36703
head 4.96097 -7.6631 2.41355
rclavicle 1.27222e-014 6.36111e-015
rhumerus -19.1755 9.18954 -49.0074
rradius 114.756
rwrist -52.3191
rhand -3.79697 -52.4149
rfingers 7.12502
rthumb 21.9489 -81.1897
lclavicle 1.27222e-014 6.36111e-015
lhumerus -52.4982 -11.4929 93.9149
lradius 68.6239
lwrist 16.6001
lhand -6.84099 -22.7298
lfingers 7.12502
lthumb 19.0237 6.35989
rfemur 0 0 0
rtibia 0
rfoot 0 0
rtoes 0
lfemur -15.8254 -9.79634 -14.276
ltibia 23.5718
lfoot -15.2269 1.66432
ltoes -55.7918
340
root -0.322103 18.7878 5.3791 6.38844 17.0693 0.752467
lowerback 13.0152 5.51272 4.22854
upperback 0.694019 8.08091 2.15894
thorax -6.2572 3.86198 -1.5266
lowerneck -8.58364 -12.2011 -10.8804
upperneck 7.26505 -15.6719 6.60962
head 4.93255 -7.68336 2.50182
rclavicle -9.02482e-014 7.95139e-015
rhumerus -19.7936 8.50043 -49.6313
rradius 115.147
rwrist -51.9444
rhand -3.75303 -52.1227
rfingers 7.12502
rthumb 21.9911 -80.8926
lclavicle -9.02482e-014 7.95139e-015
lhumerus -52.6811 -11.0636 93.807
lradius 69.129
lwrist 16.7359
lhand -6.89452 -22.7296
lfingers 7.12502
lthumb 18.9723 6.3651
rfemur 0 0 0
rtibia 0
rfoot 0 0
rtoes 0
lfemur -15.9347 -9.77479 -14.1626
ltibia 23.5713
lfoot -15.2287 1.7346
ltoes -55.8266
341
root -0.328207 18.7885 5.3744 6.41282 16.9295 0.698258
lowerback 13.1436 5.57938 4.2
upperback 0.698447 8.17179 2.15709
thorax -6.32341 3.90441 -1.54218
lowerneck -8.65324 -12.2391 -11.0754
upperneck 7.00235 -15.7189 6.97354
head 4.91197 -7.69124 2.63442
rclavicle -1.90833e-014 -2.06736e-014
rhumerus -20.1923 7.87663 -50.6438
rradius 114.433
rwrist -51.3675
rhand -3.6024 -51.3365
rfingers 7.12502
rthumb 22.1357 -80.0893
lclavicle -1.90833e-014 -2.06736e-014
lhumerus -52.7916 -10.5703 93.6983
lradius 69.4741
lwrist 16.8289
lhand -6.9025 -22.7716
lfingers 7.12502
lthumb 18.9646 6.32387
rfemur 0 0 0
rtibia 0
rfoot 0 0
rtoes 0
lfemur -15.9679 -9.86624 -14.0807
ltibia 23.5785
lfoot -15.2937 1.99296
ltoes -55.9035
342
root -0.332842 18.7885 5.37024 6.41105 16.7476 0.686759
lowerback 13.2382 5.6437 4.16299
upperback 0.708602 8.25387 2.12666
thorax -6.36186 3.94347 -1.57744
lowerneck -8.80691 -12.263 -11.1441
upperneck 6.8393 -15.7401 7.1769
head 4.91049 -7.68935 2.69726
rclavicle 4.57205e-014 4.77083e-015
rhumerus -20.1944 7.37023 -51.9014
rradius 112.552
rwrist -50.6202
rhand -3.74044 -52.0882
rfingers 7.12502
rthumb 22.0032 -80.8566
lclavicle 4.57205e-014 4.77083e-015
lhumerus -52.7995 -10.0793 93.6151
lradius 69.5874
lwrist 16.9019
lhand -6.99506 -22.8469
lfingers 7.12502
lthumb 18.8756 6.2573
rfemur 0 0 0
rtibia 0
rfoot 0 0
rtoes 0
lfemur -15.938 -9.85641 -14.0683
ltibia 23.5828
lfoot -15.3914 2.20897
ltoes -55.9474
343
root -0.335548 18.7891 5.36492 6.49302 16.5837 0.734866
lowerback 13.1501 5.68994 4.07014
upperback 0.723278 8.29432 2.10882
thorax -6.30564 3.96804 -1.54193
lowerneck -9.00922 -12.2717 -11.1039
upperneck 6.7606 -15.7168 7.04693
head 4.90216 -7.67894 2.64627
rclavicle 4.53229e-014 1.59028e-015
rhumerus -19.6489 7.05297 -53.2229
rradius 109.512
rwrist -49.6809
rhand -3.23181 -50.4622
rfingers 7.12502
rthumb 22.4915 -79.1724
lclavicle 4.53229e-014 1.59028e-015
lhumerus -52.656 -9.58427 93.5739
lradius 69.3245
lwrist 16.77
lhand -7.05284 -23.4705
lfingers 7.12502
lthumb 18.82 5.63903
rfemur 0 0 0
rtibia 0
rfoot 0 0
rtoes 0
lfemur -15.9909 -9.80872 -14.1103
ltibia 23.585
lfoot -15.4835 2.35254
ltoes -55.9015
